<?xml version="1.0" standalone="no"?>
<!DOCTYPE svg PUBLIC "-//W3C//DTD SVG 20010904//EN"
 "http://www.w3.org/TR/2001/REC-SVG-20010904/DTD/svg10.dtd">
<svg version="1.0" xmlns="http://www.w3.org/2000/svg"
 width="1024.000000pt" height="1024.000000pt" viewBox="0 0 1024.000000 1024.000000"
 preserveAspectRatio="xMidYMid meet">

<g transform="translate(0.000000,1024.000000) scale(0.100000,-0.100000)"
fill="#000000" stroke="none">
<path d="M4635 9274 c-567 -65 -1090 -251 -1555 -553 -55 -36 -79 -56 -68 -59
9 -2 68 9 130 23 87 21 148 44 263 100 276 135 568 241 836 305 l136 32 34 47
c42 56 67 66 237 87 70 8 147 19 172 23 l45 9 -55 0 c-30 0 -109 -6 -175 -14z"/>
<path d="M5322 9222 c-7 -5 27 -14 80 -21 122 -16 463 -84 608 -121 63 -16
116 -27 118 -26 2 2 -28 16 -65 30 -89 34 -244 69 -468 105 -242 40 -258 42
-273 33z"/>
<path d="M4760 9039 c-568 -32 -1135 -223 -1670 -563 -519 -331 -889 -685
-1205 -1156 -135 -202 -225 -365 -225 -407 0 -26 -4 -33 -19 -33 -27 0 -51 27
-51 57 0 49 224 434 376 645 167 233 574 640 902 902 39 32 72 62 72 67 0 23
-24 13 -96 -38 -380 -272 -730 -620 -996 -990 -200 -278 -373 -628 -471 -953
-36 -120 -83 -315 -93 -393 l-7 -46 44 -3 c40 -3 44 -6 47 -31 2 -15 -4 -69
-12 -120 -34 -195 -48 -382 -48 -627 0 -268 15 -442 58 -680 22 -121 32 -157
65 -216 82 -149 170 -419 156 -475 -5 -19 -22 -34 -61 -53 -84 -41 -84 -43
-46 -144 175 -465 397 -834 726 -1204 77 -87 101 -108 123 -108 32 0 51 16 51
45 0 11 -32 59 -71 105 -349 412 -576 738 -683 982 -58 131 26 33 122 -143 29
-51 59 -90 95 -120 28 -24 58 -51 64 -60 140 -190 486 -620 537 -668 l26 -25
34 37 c19 20 41 37 50 37 9 0 70 -47 134 -104 497 -444 930 -701 1492 -887
126 -42 208 -62 295 -74 823 -114 1578 7 2310 370 70 34 113 51 119 45 15 -15
4 -22 -159 -103 -185 -92 -408 -189 -583 -252 -154 -56 -154 -56 -127 -166 23
-93 37 -99 156 -65 74 22 678 284 702 306 5 4 1 47 -8 96 l-17 88 24 20 c30
24 153 82 196 91 l34 7 -28 29 c-15 16 -26 30 -23 33 2 2 67 51 144 109 153
115 328 261 334 279 2 7 -7 3 -21 -8 -116 -91 -285 -214 -293 -214 -6 0 -35
25 -65 55 -30 30 -57 55 -61 55 -4 0 -43 -24 -86 -54 -143 -98 -488 -277 -687
-356 -333 -132 -639 -201 -1041 -235 -110 -9 -56 10 84 30 118 17 193 33 161
34 -8 0 -81 -6 -162 -14 -104 -10 -162 -20 -198 -36 -49 -21 -60 -22 -268 -16
-255 6 -391 27 -591 87 -584 177 -1065 459 -1504 879 -54 52 -121 121 -149
153 l-51 59 28 29 c15 16 41 35 58 44 l31 15 146 -142 c322 -315 658 -541
1070 -720 159 -69 382 -147 422 -147 21 0 44 12 75 40 52 45 49 45 181 25 325
-48 716 -48 1063 -1 120 17 155 34 169 84 5 20 20 54 33 76 20 35 34 43 157
92 172 70 458 211 624 310 l129 76 -31 14 c-35 14 -43 46 -19 78 26 36 97 -7
80 -50 -8 -21 -3 -19 83 39 l71 48 39 -22 c21 -12 47 -29 56 -37 26 -22 48 -8
48 31 0 31 -12 44 -122 142 -68 60 -137 122 -154 138 l-31 28 -97 -75 c-125
-98 -258 -190 -415 -288 -138 -87 -148 -94 -111 -84 138 39 255 65 261 59 18
-20 -13 -54 -74 -81 -79 -36 -140 -90 -179 -158 l-29 -52 -133 -51 c-158 -60
-359 -113 -511 -136 -156 -23 -435 -38 -469 -26 -51 20 -57 95 -11 157 23 29
28 31 113 37 140 10 435 47 459 57 17 7 24 21 29 60 6 42 13 56 43 81 20 16
61 39 91 50 48 17 59 27 82 68 24 42 36 51 95 76 141 59 355 167 379 190 13
13 24 33 24 44 0 11 -22 62 -48 115 l-48 96 25 24 c29 27 73 50 113 60 25 6
31 0 76 -69 l49 -74 26 27 c28 29 66 107 67 135 0 12 8 17 28 17 35 -1 99 -24
121 -44 10 -9 23 -16 31 -16 7 0 -48 58 -121 129 l-134 128 -65 -57 c-214
-189 -489 -333 -776 -405 -242 -61 -321 -70 -604 -70 -239 1 -263 3 -385 28
-342 73 -656 220 -941 442 -108 85 -144 127 -144 169 0 33 15 53 57 75 20 10
32 4 120 -70 174 -144 406 -284 593 -357 227 -90 656 -142 925 -113 337 36
671 159 960 353 149 100 162 112 146 132 -12 14 -19 11 -68 -30 -85 -68 -138
-97 -160 -86 -28 15 -51 44 -57 72 -5 22 5 33 73 89 164 132 270 250 461 512
l183 251 36 -7 c62 -13 103 -11 112 5 5 8 45 128 89 267 65 203 84 253 101
258 38 12 223 9 263 -4 l38 -13 -6 -57 c-12 -106 -55 -296 -92 -406 -55 -167
-134 -329 -134 -275 0 5 18 54 39 107 57 144 101 290 131 443 l28 135 -54 3
c-76 4 -87 -5 -108 -90 -10 -40 -57 -190 -104 -332 l-85 -259 31 -28 c56 -50
163 -64 231 -30 48 25 83 76 120 178 68 186 109 383 119 581 l7 122 -292 0
-293 0 0 55 0 55 235 0 235 0 -1 73 c-1 146 -15 287 -30 302 -9 9 -45 16 -99
19 l-84 4 -18 80 c-29 132 -77 270 -138 399 l-58 122 49 36 c57 41 61 22 -37
186 -58 96 -164 246 -253 357 l-35 42 30 31 c43 45 82 64 101 48 37 -31 185
-226 264 -349 128 -199 141 -209 216 -174 24 12 32 21 28 33 -16 43 -119 219
-192 330 -46 68 -83 128 -83 133 0 19 50 58 74 58 34 0 67 -36 141 -150 256
-396 404 -811 444 -1245 15 -161 5 -509 -19 -667 -63 -417 -255 -898 -517
-1290 -50 -76 -87 -135 -81 -132 17 11 154 200 214 296 32 51 89 154 126 228
37 74 73 141 78 148 6 6 27 12 46 12 44 0 80 -34 89 -84 6 -32 -1 -51 -75
-183 -88 -160 -219 -363 -310 -483 -57 -75 -80 -123 -80 -166 0 -12 -12 -37
-26 -54 -15 -17 -24 -33 -21 -36 7 -7 104 106 193 226 212 282 413 641 535
955 54 139 81 175 129 175 69 0 77 -82 25 -253 -156 -508 -472 -1038 -797
-1337 -357 -329 -686 -548 -1095 -727 -84 -37 -155 -73 -158 -81 -7 -18 11
-81 30 -106 14 -18 20 -17 162 39 277 108 572 264 758 400 17 13 53 25 83 29
69 9 154 40 218 82 75 47 73 54 -9 33 -84 -21 -129 -14 -167 26 -13 14 -31 25
-40 25 -17 0 -139 -77 -177 -113 -29 -26 -30 -41 -3 -27 12 6 35 10 53 8 29
-3 20 -10 -104 -81 -157 -89 -442 -228 -576 -281 -91 -36 -194 -57 -192 -40 0
5 130 73 288 151 304 150 434 232 719 450 68 52 130 92 137 89 17 -6 136 -91
241 -173 l82 -63 108 118 c353 385 613 795 813 1280 36 89 48 129 42 141 -5 9
-43 38 -85 64 -61 39 -83 48 -112 45 l-36 -3 -52 -130 c-141 -348 -318 -654
-544 -937 -147 -185 -219 -258 -251 -258 -64 0 -68 53 -8 118 76 82 204 249
280 365 198 300 343 635 428 983 34 141 33 170 -14 223 -57 66 -61 88 -46 251
29 309 12 678 -46 965 -40 200 -173 567 -301 834 -35 74 -64 138 -64 142 0 19
16 7 37 -29 33 -55 30 -10 -4 58 -24 48 -28 52 -37 35 -18 -31 -54 -65 -70
-65 -20 0 -76 48 -76 66 0 21 60 83 101 104 l38 20 25 -31 c79 -94 163 -287
290 -664 107 -316 144 -457 151 -570 24 -404 26 -415 93 -415 l35 0 -7 99 c-9
141 -59 427 -105 606 -85 325 -207 632 -357 897 -24 43 -44 79 -44 81 0 2 41
36 90 77 49 41 90 79 90 84 0 6 -10 27 -21 46 -25 41 -182 248 -231 304 l-33
38 -38 -15 c-47 -20 -47 -29 0 -25 36 3 39 0 112 -94 42 -53 93 -124 114 -158
l38 -61 -61 -60 c-33 -32 -69 -59 -78 -59 -12 0 -49 41 -99 108 -45 59 -119
152 -164 207 -116 140 -468 490 -566 562 -198 147 -580 358 -798 442 -534 206
-1093 262 -1662 166 -139 -24 -230 -53 -254 -81 -9 -11 -7 -20 6 -40 19 -30 9
-31 200 14 137 32 287 57 419 68 74 6 78 6 73 -12 -4 -11 -9 -31 -12 -46 l-7
-26 94 -6 c51 -3 149 -8 218 -10 384 -15 774 -114 1113 -285 l132 -66 -1 -40
c-1 -32 -69 -213 -86 -231 -2 -2 -68 26 -146 61 -320 146 -635 228 -981 255
-68 5 -129 6 -134 3 -11 -7 -2 -468 11 -558 l7 -49 135 -27 c146 -29 342 -77
350 -86 3 -3 -24 -2 -60 2 -215 25 -367 33 -550 30 -190 -2 -213 -5 -320 -32
-120 -32 -309 -101 -348 -129 -12 -8 -36 -39 -52 -68 -18 -31 -42 -58 -58 -65
-91 -42 -365 -225 -424 -285 -19 -18 -24 -36 -10 -36 4 0 52 34 107 76 95 72
284 190 369 230 31 15 42 28 53 61 8 23 29 55 47 71 62 54 307 120 530 141
520 51 1004 -80 1434 -388 60 -43 116 -80 124 -84 8 -3 27 2 40 11 93 61 556
512 525 512 -9 0 -41 -22 -70 -48 -87 -79 -237 -202 -246 -202 -5 0 -48 32
-97 71 -282 228 -639 401 -1004 488 -88 22 -185 27 -208 12 -11 -6 -11 -20 -3
-66 6 -32 11 -74 11 -93 l0 -34 -52 7 c-79 10 -124 23 -138 41 -9 10 -15 70
-18 196 l-5 181 29 -8 c32 -8 40 -9 139 -20 469 -48 946 -242 1303 -532 30
-24 64 -43 78 -43 22 0 24 4 24 43 0 28 -6 50 -19 63 -27 28 -96 91 -176 158
-39 33 -74 63 -79 68 -6 5 4 23 25 44 39 42 219 194 229 194 13 0 222 -191
404 -370 177 -174 246 -258 246 -302 0 -19 -93 -98 -115 -98 -8 0 -51 40 -96
90 l-83 89 -85 -82 c-319 -303 -411 -393 -411 -400 0 -5 32 -44 71 -88 164
-187 312 -405 435 -644 124 -240 171 -412 181 -660 5 -134 5 -141 -16 -159
-20 -18 -22 -18 -41 -1 -14 12 -20 31 -20 58 0 166 -87 521 -167 682 -92 183
-262 434 -411 608 l-76 87 -66 -63 c-120 -116 -116 -113 -141 -91 -12 10 -30
31 -41 46 -23 33 -21 38 66 128 50 52 68 80 50 80 -3 0 -29 -21 -58 -46 -83
-76 -78 -76 -202 7 -214 142 -479 253 -715 301 -100 20 -142 23 -344 23 -210
-1 -241 -3 -350 -27 -197 -43 -515 -155 -536 -190 -4 -6 -1 -21 7 -32 24 -35
16 -54 -38 -94 -214 -156 -263 -195 -342 -271 -567 -548 -704 -1183 -415
-1926 35 -91 44 -105 99 -153 33 -29 74 -74 92 -100 39 -58 44 -62 87 -62 26
0 46 11 88 46 63 54 43 63 198 -87 97 -93 108 -100 350 -231 313 -169 407
-203 645 -233 102 -13 321 -13 373 0 22 6 27 15 36 67 6 33 15 66 21 73 14 17
439 185 468 185 27 0 89 -55 138 -121 34 -47 35 -50 20 -74 -25 -38 -171 -117
-344 -184 -81 -32 -267 -79 -377 -96 -271 -41 -663 2 -878 96 -105 46 -306
160 -431 246 -103 69 -111 73 -138 62 -36 -15 -36 -33 0 -48 18 -8 38 -32 59
-74 18 -34 53 -85 78 -114 25 -28 45 -54 45 -57 0 -16 -84 40 -163 109 l-88
77 -22 -19 c-12 -11 -141 -125 -287 -253 -146 -128 -278 -245 -293 -259 -24
-22 -29 -23 -37 -11 -14 22 -13 24 25 70 19 23 35 47 35 54 0 7 -48 79 -106
162 -359 503 -485 758 -558 1124 -39 196 -41 231 -18 259 18 23 24 24 140 24
178 -1 195 -16 168 -157 -28 -141 -61 -161 -106 -63 -35 74 -36 64 -10 -79 75
-413 259 -773 534 -1044 59 -58 68 -63 91 -55 14 6 90 70 170 144 l145 133
-50 62 c-139 171 -277 410 -360 623 -136 351 -145 769 -23 1133 75 224 180
403 384 652 71 86 129 160 129 164 0 20 -212 285 -314 393 -78 81 -216 206
-216 194 0 -5 18 -32 40 -62 22 -29 40 -59 40 -66 0 -21 -87 -131 -172 -218
-69 -71 -80 -79 -104 -73 -37 10 -106 60 -134 98 -28 38 -27 41 91 199 155
208 401 438 635 597 17 11 17 12 -6 6 -31 -7 -109 -58 -225 -145 -78 -59 -378
-351 -535 -521 -30 -33 -61 -58 -73 -58 -10 0 -33 12 -51 27 -36 30 -95 57
-105 47 -14 -15 393 -375 423 -374 6 0 78 75 161 165 82 91 152 165 156 165
19 0 74 -49 77 -69 6 -43 -7 -68 -89 -162 -74 -87 -196 -260 -262 -373 -30
-52 -60 -60 -65 -16 -1 14 -5 36 -8 50 l-6 25 -19 -24 c-26 -32 -24 -59 10
-109 l30 -43 -36 -77 c-75 -166 -155 -450 -176 -629 l-5 -43 84 0 84 0 0 84
c0 80 -1 84 -24 90 -30 7 -38 43 -25 110 10 56 30 82 74 100 24 10 33 23 43
61 23 88 53 145 78 151 36 9 70 -3 87 -30 15 -23 14 -29 -13 -104 -54 -148
-87 -305 -105 -495 -4 -38 -17 -100 -30 -138 l-24 -69 20 -118 c55 -330 82
-445 130 -551 18 -40 29 -81 29 -110 0 -51 29 -123 64 -161 15 -15 26 -43 30
-73 7 -55 27 -99 69 -146 42 -49 97 -137 97 -157 0 -20 -55 -97 -104 -143 -34
-33 -37 -34 -75 -23 -41 13 -101 71 -101 99 0 8 15 37 34 62 33 46 33 48 15
70 -78 96 -334 582 -346 657 -6 34 0 41 44 49 10 2 18 4 19 4 0 1 -9 67 -21
149 -20 135 -21 152 -7 205 9 39 11 62 4 69 -11 11 -384 14 -484 3 l-66 -7 1
-69 c1 -42 -2 -73 -9 -77 -34 -22 -35 -49 -4 -199 16 -81 48 -215 70 -296 39
-146 50 -227 30 -227 -43 0 -154 357 -196 632 -10 62 -21 117 -24 121 -19 22
-18 -83 0 -200 75 -471 226 -863 471 -1233 54 -80 129 -185 169 -234 79 -98
80 -103 26 -170 l-23 -30 -31 22 c-31 23 -154 156 -209 228 -23 29 -34 56 -39
95 -5 42 -22 82 -81 182 -208 356 -352 747 -423 1151 -12 66 -28 129 -36 140
-33 52 -44 276 -18 411 8 44 19 125 25 180 14 143 36 272 71 414 25 103 28
125 17 136 -8 7 -59 32 -114 56 -109 47 -145 75 -145 112 0 48 50 194 130 382
97 228 99 231 65 180 -52 -79 -155 -302 -195 -423 -44 -132 -59 -209 -115
-590 -27 -191 -35 -274 -35 -389 0 -80 2 -144 4 -142 2 2 6 59 10 127 8 145
43 367 87 542 39 153 54 176 44 65 -13 -144 -14 -138 21 -147 17 -4 39 -17 48
-27 17 -19 17 -28 2 -178 -8 -87 -19 -223 -22 -302 l-7 -144 -35 -20 -35 -21
6 -105 c5 -101 34 -321 43 -330 2 -2 4 18 4 46 0 37 4 53 16 57 54 21 70 -2
108 -154 95 -376 251 -737 462 -1066 40 -62 53 -93 58 -137 9 -68 50 -125 213
-290 115 -117 119 -118 175 -71 32 26 66 39 76 29 4 -4 -13 -24 -37 -46 -41
-37 -92 -59 -137 -59 -27 0 -102 74 -177 175 -51 69 -63 79 -86 77 -25 -3 -36
8 -98 90 -235 313 -393 607 -510 953 -77 227 -145 536 -160 732 -9 125 -25 80
-18 -52 16 -295 79 -587 189 -876 103 -272 311 -631 539 -932 53 -70 97 -131
97 -135 0 -3 -36 -43 -81 -88 l-81 -82 15 -51 c8 -28 11 -51 7 -51 -11 0 -79
77 -92 104 -9 21 -3 34 40 98 58 86 60 73 -38 198 -124 157 -272 385 -351 541
-17 34 -32 59 -33 58 -2 -2 1 -32 7 -66 9 -52 8 -65 -6 -87 -10 -14 -21 -26
-25 -26 -5 0 -30 34 -57 75 -26 41 -50 73 -52 71 -12 -12 191 -361 316 -545
68 -98 90 -158 56 -145 -19 8 -159 198 -246 334 -313 494 -491 1030 -542 1640
l-4 45 71 50 71 50 3 73 3 72 -33 0 c-18 0 -50 3 -70 6 -33 6 -39 11 -48 43
-14 50 -12 142 5 327 34 361 107 671 235 997 l42 108 -31 48 c-17 26 -31 50
-31 54 0 14 62 -17 80 -41 11 -14 22 -23 24 -21 4 4 46 181 46 193 0 3 -9 6
-19 6 -23 0 -52 36 -45 55 3 7 43 34 90 60 69 39 89 56 106 89 104 206 496
663 821 958 l78 71 36 -35 36 -36 78 58 c511 379 1091 607 1678 661 190 17
554 7 736 -21 193 -29 353 -64 534 -116 189 -54 231 -56 231 -12 0 55 -64 92
-250 146 -391 114 -812 163 -1210 141z m1897 -1089 c17 -10 37 -28 43 -39 10
-19 8 -21 -22 -21 -18 0 -40 6 -49 13 -15 11 -39 49 -39 61 0 13 37 5 67 -14z
m-1049 -460 c155 -37 361 -124 492 -208 79 -50 190 -134 190 -144 0 -4 -111
48 -247 115 -157 78 -296 139 -378 166 -118 40 -155 59 -155 83 0 11 4 11 98
-12z m1380 -412 c29 -29 13 -62 -56 -115 -37 -29 -107 -89 -156 -133 -95 -86
-128 -98 -134 -51 -3 19 23 51 139 167 146 147 174 165 207 132z m-1789 -154
l31 -6 0 -227 0 -226 108 -26 c59 -15 148 -44 199 -66 93 -41 260 -146 321
-202 30 -28 32 -33 32 -103 0 -96 -7 -121 -32 -115 -14 4 -9 -5 18 -35 57 -63
88 -140 92 -230 4 -69 2 -77 -16 -82 -32 -11 -64 11 -116 80 -48 63 -59 69
-116 65 -73 -5 -74 -8 -23 -53 53 -45 103 -97 139 -143 29 -38 47 -191 37
-316 -8 -104 -24 -124 -109 -135 -62 -7 -370 1 -417 12 -47 11 -59 50 -60 192
-1 154 -3 152 132 152 154 0 154 1 71 81 -92 88 -235 163 -253 132 -11 -18
-22 -676 -18 -1055 l1 -128 296 0 295 0 61 42 c269 182 414 507 395 883 -4 66
-14 149 -22 184 -15 62 -15 67 5 117 l21 52 -44 89 c-25 49 -70 127 -101 172
l-56 84 118 125 c176 188 346 342 377 342 22 0 25 -4 25 -38 0 -32 -7 -45 -45
-82 -25 -24 -45 -47 -45 -51 0 -5 33 -54 74 -111 147 -204 281 -473 332 -663
13 -50 31 -138 39 -195 15 -109 19 -362 6 -462 -7 -54 2 -81 12 -40 3 9 5 1 6
-17 3 -85 -137 -427 -248 -610 -114 -185 -326 -427 -477 -543 -274 -211 -576
-339 -914 -388 -83 -12 -383 -6 -480 10 -137 22 -281 60 -363 96 -94 41 -211
104 -204 110 2 3 81 -22 175 -55 239 -83 323 -96 637 -96 275 1 357 12 550 76
500 167 953 632 1129 1160 92 275 112 534 65 839 -22 146 -104 342 -209 499
-62 92 -102 127 -56 49 66 -114 149 -337 187 -503 26 -116 37 -386 20 -506
-39 -271 -158 -548 -342 -791 -42 -57 -109 -134 -148 -172 l-70 -70 -56 39
c-31 21 -74 58 -96 83 l-39 45 118 121 c209 214 310 386 380 645 23 87 25 114
26 286 0 174 -2 200 -28 309 -32 136 -75 266 -116 346 -48 93 -61 100 -25 12
83 -198 115 -358 115 -567 0 -171 -17 -279 -70 -436 -98 -294 -276 -541 -525
-726 -130 -97 -138 -100 -332 -112 -95 -6 -210 -11 -256 -11 l-84 0 -7 -61
c-3 -34 -6 -91 -6 -125 l0 -64 -135 0 -135 0 0 128 0 127 -327 3 -327 4 -55
43 c-110 85 -228 211 -300 318 -18 27 -30 51 -26 55 4 4 236 7 516 7 l509 0 0
603 0 602 -22 -4 c-13 -3 -48 -7 -78 -11 -57 -6 -120 -23 -120 -32 0 -3 20
-31 44 -62 40 -53 43 -63 48 -131 9 -124 -23 -447 -43 -434 -5 3 -9 24 -9 47
-1 23 -7 77 -15 120 -15 89 -20 95 -222 320 -99 110 -119 128 -142 125 -33 -4
-69 -69 -107 -193 -35 -117 -38 -298 -7 -412 27 -102 26 -103 -111 -103 -95 0
-115 3 -129 18 -29 32 -39 77 -44 213 -11 265 50 480 198 695 27 39 49 74 49
78 0 4 -28 37 -62 72 l-62 65 55 55 c126 129 296 235 477 298 90 31 115 36
207 37 l105 1 0 193 c0 212 2 205 -63 205 -18 0 -47 -9 -64 -20 l-33 -20 0
-120 c0 -88 -3 -122 -12 -125 -7 -2 -58 -16 -113 -31 -55 -15 -140 -45 -190
-66 -49 -22 -96 -42 -104 -45 -33 -15 0 25 58 70 34 26 59 47 54 47 -15 0
-173 -89 -244 -136 -241 -162 -462 -434 -539 -661 -31 -94 -37 -137 -20 -163
11 -18 10 -20 49 75 81 198 236 454 331 545 71 68 164 120 181 103 9 -9 -6
-31 -67 -96 -194 -205 -317 -438 -375 -705 -14 -66 -22 -151 -26 -267 -5 -167
-5 -173 31 -345 20 -96 47 -218 61 -270 13 -52 23 -96 21 -98 -5 -4 -57 82
-78 128 -64 138 -87 243 -94 434 -14 344 -18 392 -45 430 -13 20 -43 46 -66
57 -58 28 -77 16 -101 -64 -56 -179 -81 -368 -78 -567 3 -137 7 -174 40 -318
20 -90 35 -169 33 -175 -5 -17 -84 191 -118 314 -87 313 -87 637 3 918 119
379 431 770 790 993 221 137 427 206 723 241 54 7 272 7 304 1z m376 -105
c111 -24 380 -172 563 -311 103 -78 120 -104 98 -146 -18 -35 -111 -122 -129
-122 -8 0 -63 36 -123 80 -136 99 -291 188 -437 251 l-112 49 -3 110 -3 110
48 -5 c26 -3 71 -10 98 -16z m-4005 -54 c7 -20 2 -52 -26 -143 -52 -172 -90
-257 -120 -271 -33 -14 -34 -14 -34 7 0 21 55 194 93 292 58 150 68 164 87
115z m1970 -25 c16 -11 38 -36 50 -55 l22 -35 -74 -88 c-92 -110 -179 -224
-247 -324 -58 -87 -76 -95 -137 -58 -49 31 -51 51 -9 126 91 163 317 454 352
454 8 0 28 -9 43 -20z m2059 -246 c58 -19 143 -56 188 -81 142 -80 267 -193
241 -219 -4 -3 -37 20 -74 51 -93 79 -217 158 -327 209 -50 23 -108 50 -127
59 -60 27 -12 19 99 -19z m1206 -258 c19 -29 10 -56 -19 -56 -30 0 -46 18 -46
52 0 23 4 28 25 28 15 0 31 -9 40 -24z m-694 -430 c41 -84 59 -158 41 -170 -6
-4 -15 15 -22 46 -10 51 -50 130 -117 236 -18 29 -33 56 -33 60 2 22 96 -102
131 -172z m858 149 c12 -12 12 -17 -3 -39 -9 -14 -22 -26 -28 -26 -18 0 -48
31 -48 50 0 39 45 47 79 15z m988 -253 c28 -22 42 -127 50 -367 5 -168 -7
-415 -26 -505 -8 -42 -45 -60 -86 -42 l-25 12 0 137 c0 76 -5 272 -11 437 -9
265 -8 301 6 322 19 29 60 32 92 6z m-3459 -221 c19 -11 18 -42 -3 -136 -31
-143 -7 -312 65 -456 32 -61 131 -161 217 -215 36 -24 53 -41 53 -56 0 -18 -4
-20 -34 -15 -59 10 -108 39 -184 111 -171 162 -242 345 -215 553 16 119 49
223 71 223 9 0 23 -4 30 -9z m1252 -474 c54 -14 79 -52 59 -89 -43 -82 -200
-219 -314 -276 -75 -37 -168 -67 -188 -59 -18 7 -30 106 -19 157 7 31 18 42
100 90 50 31 97 63 104 72 7 8 39 39 71 67 50 45 62 51 100 50 23 0 62 -6 87
-12z m-1292 -333 c68 -77 84 -104 63 -104 -16 0 -140 140 -171 192 -39 69 -38
83 3 33 18 -22 65 -76 105 -121z m-1556 94 c-15 -15 -26 -4 -18 18 5 13 9 15
18 6 9 -9 9 -15 0 -24z m692 10 c14 -13 63 -97 109 -189 46 -91 97 -185 112
-209 32 -51 28 -66 -28 -93 -31 -16 -40 -17 -53 -6 -28 23 -62 93 -98 200 -29
90 -86 295 -86 313 0 13 20 5 44 -16z m4292 -289 c26 -13 29 -20 32 -67 2 -29
-4 -77 -13 -107 -13 -46 -19 -54 -45 -60 -36 -8 -91 9 -115 35 -21 23 -17 82
11 169 l18 53 41 -4 c23 -3 54 -11 71 -19z m-5311 -391 c6 -23 4 -28 -11 -28
-38 0 -73 68 -47 94 11 10 51 -35 58 -66z m162 35 c12 -8 43 -51 69 -96 63
-108 182 -292 255 -394 77 -106 77 -143 -1 -143 -28 0 -43 7 -66 33 -77 82
-253 341 -324 478 -41 79 -44 103 -18 136 12 15 51 8 85 -14z m5685 -127 c14
-20 9 -35 -52 -169 -174 -377 -408 -738 -688 -1060 l-85 -97 -24 21 c-44 42
-41 50 77 184 204 232 392 502 544 783 36 68 66 125 66 126 0 2 25 56 55 120
51 107 57 117 78 110 12 -4 25 -12 29 -18z m-4927 -236 c8 -13 -60 -80 -81
-80 -10 0 -2 15 23 45 40 47 48 51 58 35z m-24 -310 c6 0 63 -51 128 -113 251
-241 517 -399 880 -523 10 -3 12 -17 7 -59 -9 -77 -24 -107 -50 -99 -77 23
-271 106 -376 160 -230 120 -527 334 -573 415 -12 21 -26 39 -32 39 -16 -1
-135 -100 -142 -118 -9 -21 110 -131 269 -252 127 -96 236 -164 390 -241 69
-35 116 -66 152 -102 49 -50 58 -55 206 -104 228 -76 274 -87 318 -72 50 16
135 59 129 65 -2 3 -42 14 -88 25 -98 23 -219 76 -219 95 0 20 18 17 47 -6 25
-19 26 -19 52 -1 52 36 85 41 174 26 45 -8 116 -18 158 -21 l76 -7 6 129 c11
195 14 213 51 235 19 11 50 19 78 19 39 0 50 -4 63 -24 15 -22 14 -26 -17 -72
l-33 -49 -3 -176 -3 -176 -75 -7 c-88 -8 -104 -13 -104 -33 0 -8 -7 -46 -16
-84 -15 -66 -18 -72 -53 -86 -31 -13 -49 -14 -126 -4 -49 7 -128 20 -175 31
l-85 18 -113 -59 c-63 -33 -121 -59 -129 -57 -9 2 -17 16 -19 31 -5 49 -28 70
-140 131 -60 32 -196 108 -302 168 -202 115 -241 148 -292 249 -11 20 -61 73
-112 117 -51 44 -123 111 -160 150 -62 64 -68 74 -68 112 0 23 5 51 12 63 37
70 260 282 286 272 8 -3 18 -5 23 -5z m460 -253 c227 -147 249 -162 249 -169
0 -5 -15 -8 -34 -8 -22 0 -47 11 -78 34 -24 19 -82 59 -129 89 -81 53 -185
147 -162 147 6 0 75 -42 154 -93z m2297 -205 l3 -42 -151 -74 c-166 -82 -345
-144 -501 -176 -95 -19 -345 -42 -361 -33 -10 5 -9 78 1 113 6 24 12 25 96 32
217 18 520 98 705 186 73 35 93 40 145 39 l60 -2 3 -43z m-3126 -66 c14 -11
90 -75 169 -141 78 -66 192 -158 253 -205 119 -92 127 -104 107 -171 -20 -65
-30 -66 -123 -8 -174 109 -384 282 -500 413 -32 35 -58 67 -58 70 0 3 14 21
31 41 28 31 36 35 63 29 17 -3 43 -16 58 -28z m1691 -52 c139 -19 153 -25 161
-64 13 -68 7 -129 -15 -151 -21 -21 -28 -21 -128 -16 -148 9 -252 35 -268 67
-20 39 -16 120 7 158 23 38 14 38 243 6z m722 -294 c8 -7 15 -23 15 -36 0 -19
-9 -26 -52 -39 -29 -9 -90 -19 -135 -22 -81 -6 -83 -5 -83 16 0 33 17 60 53
82 27 17 44 20 110 16 43 -3 84 -11 92 -17z m1045 -937 c0 -21 -373 -153 -388
-138 -3 2 4 8 14 11 62 23 287 115 301 123 21 12 73 14 73 4z"/>
<path d="M4801 6229 c-75 -15 -172 -50 -251 -90 -87 -45 -200 -127 -200 -144
0 -18 59 -23 338 -31 l252 -7 0 74 c0 41 -3 104 -7 142 l-6 67 -41 -1 c-23 -1
-61 -5 -85 -10z"/>
<path d="M5230 6107 c0 -99 3 -126 14 -130 20 -8 586 -21 586 -14 0 10 -135
94 -219 137 -79 39 -276 110 -348 125 l-33 7 0 -125z"/>
<path d="M6403 8969 c-17 -24 -33 -54 -37 -67 -4 -12 -25 -31 -47 -42 -21 -11
-39 -23 -39 -26 0 -2 9 -23 21 -46 34 -66 98 -119 235 -192 333 -178 563 -348
858 -636 657 -641 1026 -1358 1133 -2205 22 -175 25 -668 5 -850 -19 -172 -50
-372 -78 -505 -31 -150 -31 -162 6 -194 36 -30 136 -64 149 -50 14 15 87 252
109 355 31 144 46 384 46 714 0 218 -5 341 -18 450 -9 83 -19 158 -22 168 -3
9 -1 17 4 17 11 0 66 -250 87 -395 23 -163 35 -311 35 -454 0 -74 2 -132 5
-129 3 2 12 65 21 139 21 165 23 536 5 699 -27 246 -125 609 -248 920 -251
632 -644 1179 -1178 1637 l-131 112 -18 93 c-16 81 -24 98 -55 131 -34 36
-283 198 -432 280 -60 34 -67 35 -87 21 -19 -13 -51 -89 -41 -97 2 -2 62 -41
133 -86 71 -45 171 -111 222 -147 91 -63 93 -65 83 -93 -15 -43 -45 -65 -85
-64 -40 1 -167 74 -346 199 l-108 75 0 50 c0 35 9 67 31 110 28 57 29 62 14
79 -22 24 -104 59 -158 66 -44 6 -45 5 -74 -37z m1372 -1135 c20 -8 186 -215
293 -366 251 -354 538 -923 566 -1122 8 -57 -6 -36 -59 88 -181 424 -477 897
-789 1261 -94 109 -108 145 -57 145 16 0 37 -3 46 -6z m934 -2731 l24 -6 -7
-196 c-7 -232 -34 -431 -63 -470 -26 -34 -54 -33 -71 2 -12 24 -10 52 12 205
14 97 31 243 37 325 13 158 12 155 68 140z"/>
<path d="M7403 8838 c-56 -58 -66 -113 -33 -185 27 -60 71 -85 137 -80 83 6
130 63 118 143 -12 80 -68 136 -150 149 -36 6 -43 3 -72 -27z"/>
<path d="M4725 8784 c-264 -39 -587 -127 -868 -236 -150 -58 -187 -85 -187
-134 0 -49 22 -44 83 20 63 65 94 81 270 140 345 117 661 168 1032 168 365 0
563 -31 933 -147 147 -46 287 -91 311 -99 61 -22 63 -20 11 10 -108 63 -392
159 -615 209 -245 55 -359 67 -660 70 -154 2 -293 1 -310 -1z"/>
<path d="M2089 8723 c-14 -38 -8 -56 24 -67 50 -18 90 31 61 73 -23 32 -72 29
-85 -6z"/>
<path d="M2840 8640 c0 -5 5 -10 10 -10 6 0 10 5 10 10 0 6 -4 10 -10 10 -5 0
-10 -4 -10 -10z"/>
<path d="M4855 8618 c-308 -21 -623 -92 -910 -208 -354 -142 -615 -298 -615
-366 0 -31 42 -74 71 -74 11 0 110 47 219 104 108 58 230 118 271 134 41 17
108 45 149 64 71 33 77 38 115 103 47 82 67 92 240 128 647 135 1281 72 1855
-184 47 -21 99 -41 115 -44 l30 -7 -30 20 c-16 10 -45 33 -63 50 -77 73 -503
204 -815 251 -204 31 -436 42 -632 29z"/>
<path d="M2699 8544 c-43 -45 -151 -117 -222 -148 -46 -21 -58 -32 -77 -71
-13 -26 -38 -67 -57 -92 -19 -25 -32 -47 -30 -50 3 -2 50 37 104 87 54 51 143
131 198 178 136 117 138 119 128 125 -6 4 -25 -10 -44 -29z"/>
<path d="M7720 8511 c0 -36 3 -41 24 -41 30 0 49 22 44 52 -2 18 -10 24 -35
26 -32 3 -33 2 -33 -37z"/>
<path d="M8292 8498 c-7 -7 -12 -25 -12 -40 0 -21 6 -29 25 -34 38 -9 55 2 55
35 0 41 -42 65 -68 39z"/>
<path d="M6487 8443 c-13 -12 -7 -23 11 -23 11 0 62 -22 115 -49 54 -27 97
-46 97 -41 0 11 -102 73 -164 99 -55 24 -51 23 -59 14z"/>
<path d="M1401 8294 c-27 -34 -27 -88 0 -125 28 -39 84 -41 128 -3 43 36 42
75 -3 120 -44 44 -94 47 -125 8z"/>
<path d="M4418 8276 c-134 -43 -145 -47 -83 -40 60 7 202 51 210 64 10 16 -12
11 -127 -24z"/>
<path d="M3280 8250 c-16 -37 -8 -57 27 -71 38 -14 69 2 78 41 9 41 -8 60 -55
60 -32 0 -39 -4 -50 -30z"/>
<path d="M7882 8188 c53 -66 307 -394 372 -481 57 -75 58 -78 41 -97 -26 -29
1 -25 30 5 29 28 31 57 7 102 -9 17 -92 123 -184 235 -125 152 -181 213 -224
241 -31 20 -61 37 -67 37 -5 0 6 -19 25 -42z"/>
<path d="M5037 8177 c53 -6 112 -6 170 0 85 10 83 10 -82 10 -160 0 -165 -1
-88 -10z"/>
<path d="M3059 8155 c-20 -21 -38 -26 -102 -31 l-78 -7 -192 -182 c-193 -183
-272 -263 -265 -271 3 -2 53 45 114 104 93 92 315 272 335 272 12 0 61 -55 70
-79 8 -20 1 -32 -59 -95 -60 -64 -111 -128 -137 -176 -10 -18 33 19 146 127
48 46 92 83 98 83 7 0 26 -13 42 -29 44 -44 40 -84 -13 -134 -85 -78 -145
-126 -230 -185 -62 -42 -111 -87 -168 -153 -173 -202 -354 -475 -481 -726
l-64 -125 40 -34 c22 -19 45 -32 50 -31 6 2 42 62 80 133 218 401 457 712 783
1017 65 60 113 97 126 97 35 0 119 -45 154 -82 l33 -35 -44 -36 c-113 -93
-497 -495 -497 -521 0 -4 87 74 192 175 106 101 219 209 251 239 64 61 180
144 270 193 57 32 69 53 48 86 -5 8 -42 22 -82 32 -63 16 -80 26 -130 74 -67
64 -86 67 -149 25 -54 -36 -64 -37 -84 -8 -27 38 -20 72 23 115 69 69 64 122
-16 170 l-39 23 -25 -25z"/>
<path d="M8090 8123 c0 -5 12 -20 26 -34 24 -21 26 -22 16 -3 -13 25 -42 50
-42 37z"/>
<path d="M6740 8111 c0 -5 53 -54 118 -108 154 -128 272 -234 468 -419 l160
-153 40 24 c47 28 69 64 60 98 -3 13 -44 64 -92 113 -47 49 -78 76 -69 59 10
-16 29 -42 42 -57 21 -22 24 -31 16 -54 -5 -15 -22 -37 -37 -48 l-28 -21 -74
78 c-41 43 -74 85 -74 92 0 8 15 35 33 61 l32 46 -50 44 c-48 43 -52 45 -100
39 -107 -12 -100 -14 -103 27 -4 41 -27 64 -141 136 -61 39 -66 40 -92 26 -37
-19 -51 -18 -83 7 -14 11 -26 16 -26 10z"/>
<path d="M2100 8075 c0 -17 5 -25 13 -22 6 2 12 12 12 22 0 10 -6 20 -12 23
-8 2 -13 -6 -13 -23z"/>
<path d="M7044 8071 c20 -22 26 -25 26 -13 0 4 -10 13 -22 21 -23 14 -23 14
-4 -8z"/>
<path d="M3936 8049 c-43 -51 -46 -100 -9 -156 15 -23 22 -25 72 -21 46 4 59
10 83 37 32 35 34 56 13 107 -10 23 -26 39 -49 49 -54 23 -81 19 -110 -16z"/>
<path d="M1892 8038 c5 -15 28 -18 29 -3 0 6 -7 12 -17 13 -10 3 -15 -1 -12
-10z"/>
<path d="M8180 8012 c12 -18 25 -31 28 -27 3 3 -7 18 -23 33 l-28 27 23 -33z"/>
<path d="M4715 8004 c-265 -36 -501 -108 -740 -228 -203 -101 -228 -125 -187
-176 l18 -22 99 50 c225 112 518 201 793 241 79 12 157 21 172 21 l29 0 -1
-189 -1 -189 -56 -6 c-107 -13 -227 -37 -335 -68 l-109 -31 -43 49 c-44 50
-60 83 -51 107 5 13 195 82 307 111 90 23 20 18 -112 -9 -372 -76 -674 -223
-976 -477 l-82 -69 21 -30 c25 -36 206 -216 236 -236 21 -14 29 -10 145 80
339 260 661 414 1008 481 47 9 95 19 108 22 l22 4 0 290 0 290 -82 -1 c-46 -1
-128 -7 -183 -15z m-504 -474 c29 -16 49 -64 49 -118 l0 -49 -147 -110 c-166
-125 -210 -153 -236 -153 -15 0 -11 9 21 50 43 54 46 82 9 101 -38 21 -94 3
-192 -61 -52 -33 -110 -67 -128 -75 -33 -13 -77 -11 -77 5 0 8 119 101 220
171 153 107 402 248 438 248 13 1 32 -4 43 -9z"/>
<path d="M2157 7992 c-19 -20 -23 -37 -7 -27 10 6 33 45 27 45 -2 0 -11 -8
-20 -18z"/>
<path d="M2045 7949 c-4 -6 -5 -12 -2 -15 2 -3 7 2 10 11 7 17 1 20 -8 4z"/>
<path d="M8240 7943 c0 -5 12 -20 26 -34 24 -21 26 -22 16 -3 -13 25 -42 50
-42 37z"/>
<path d="M2098 7923 c-29 -34 -30 -48 -2 -21 15 15 26 30 23 33 -3 3 -13 -3
-21 -12z"/>
<path d="M1947 7833 c-60 -66 -71 -100 -16 -47 35 33 94 114 82 113 -4 0 -34
-30 -66 -66z"/>
<path d="M2027 7832 c-19 -20 -23 -37 -7 -27 10 6 33 45 27 45 -2 0 -11 -8
-20 -18z"/>
<path d="M8349 7813 c18 -24 35 -43 38 -43 7 0 -34 55 -54 71 -10 8 -3 -5 16
-28z"/>
<path d="M6706 7775 c-20 -30 -36 -61 -36 -68 0 -15 62 -78 75 -76 6 1 34 28
64 60 l54 59 -24 26 c-24 26 -70 54 -87 54 -5 0 -26 -25 -46 -55z"/>
<path d="M1922 7714 c-44 -49 -122 -174 -108 -174 4 0 144 190 160 218 15 26
-4 10 -52 -44z"/>
<path d="M1657 7713 c-4 -3 -7 -19 -7 -34 0 -22 6 -30 24 -35 14 -3 30 -3 36
1 18 11 29 49 18 63 -11 13 -60 17 -71 5z"/>
<path d="M6871 7614 c-26 -34 -26 -35 5 -69 25 -27 26 -27 44 -9 28 28 35 68
15 88 -23 23 -40 20 -64 -10z"/>
<path d="M2548 7540 c-32 -43 -58 -83 -58 -90 0 -6 16 10 37 37 20 26 52 67
71 91 20 24 29 42 21 41 -8 0 -40 -36 -71 -79z"/>
<path d="M1628 7298 c-71 -129 -143 -275 -152 -308 -9 -30 37 49 144 251 85
160 84 159 72 159 -4 0 -33 -46 -64 -102z"/>
<path d="M8480 7360 c-24 -44 -5 -80 42 -80 35 0 46 24 27 58 -20 35 -56 47
-69 22z"/>
<path d="M2282 7213 c-111 -182 -312 -563 -297 -563 3 0 23 37 46 82 54 107
158 292 249 443 40 66 74 123 77 128 2 4 0 7 -6 7 -5 0 -36 -44 -69 -97z"/>
<path d="M2150 7242 c0 -26 11 -34 27 -21 20 17 16 39 -7 39 -13 0 -20 -7 -20
-18z"/>
<path d="M1961 7089 c-16 -45 -14 -99 3 -99 29 0 66 41 66 74 0 60 -50 78 -69
25z"/>
<path d="M8787 7044 c-10 -10 12 -44 27 -44 13 0 26 20 26 41 0 10 -43 12 -53
3z"/>
<path d="M7960 6898 c-11 -12 -19 -27 -16 -33 2 -5 46 -111 99 -235 122 -291
160 -394 203 -549 57 -210 104 -475 104 -599 0 -26 5 -54 10 -62 7 -11 9 -7 5
15 -2 17 -6 68 -9 115 -3 47 -15 165 -27 262 -22 174 -22 178 -4 212 18 33 18
37 1 118 -61 284 -248 744 -312 768 -33 13 -30 13 -54 -12z"/>
<path d="M1287 6883 c-4 -3 -7 -17 -7 -30 0 -16 6 -23 20 -23 25 0 36 25 20
45 -14 16 -23 19 -33 8z"/>
<path d="M8790 6771 c0 -5 5 -13 10 -16 6 -3 10 -2 10 4 0 5 -4 13 -10 16 -5
3 -10 2 -10 -4z"/>
<path d="M2392 6740 c-16 -27 -15 -33 9 -64 25 -31 44 -23 54 25 12 52 -36 81
-63 39z"/>
<path d="M2517 6656 c-57 -105 -130 -271 -168 -384 l-28 -84 29 -65 30 -65
-44 -112 c-42 -108 -59 -186 -72 -333 -5 -52 -3 -73 5 -73 7 0 11 20 11 53 0
28 5 79 10 112 22 138 31 164 69 210 26 32 44 68 56 113 41 157 152 416 242
564 39 66 38 87 -10 117 -72 44 -78 41 -130 -53z"/>
<path d="M8820 6706 c0 -12 32 -77 36 -73 6 6 -22 77 -30 77 -4 0 -6 -2 -6 -4z"/>
<path d="M2747 6623 c-4 -3 9 -17 27 -30 l35 -23 -44 -80 c-194 -350 -308
-764 -318 -1155 l-2 -90 85 -7 c47 -3 160 -6 253 -7 162 -1 167 0 167 20 0 11
-5 29 -10 40 -9 17 -22 19 -105 19 -51 0 -96 4 -99 9 -8 12 12 229 30 335 22
132 68 302 115 426 42 113 44 140 11 140 -27 0 -33 -10 -86 -133 -65 -148
-131 -411 -167 -662 -6 -44 -16 -86 -21 -92 -15 -18 -83 -16 -99 3 -10 13 -10
44 -1 167 15 190 50 363 109 539 55 167 167 400 213 445 32 31 33 34 19 60
-13 24 -83 83 -99 83 -4 0 -10 -3 -13 -7z"/>
<path d="M1175 6492 c-4 -24 -5 -46 -2 -49 8 -7 20 63 14 79 -2 7 -7 -6 -12
-30z"/>
<path d="M1277 6439 c-15 -52 -38 -129 -51 -171 -14 -43 -20 -78 -16 -78 9 0
66 173 91 272 21 89 3 71 -24 -23z"/>
<path d="M1772 6358 c-67 -187 -111 -414 -117 -608 l-5 -135 25 150 c27 165
96 498 124 600 26 94 8 89 -27 -7z"/>
<path d="M8986 6345 c4 -17 37 -147 75 -290 111 -430 124 -515 140 -925 6
-157 12 -287 15 -289 13 -14 17 30 17 221 -1 319 -34 586 -110 883 -19 77 -38
147 -40 155 -3 9 1 8 11 -5 16 -18 16 -18 10 15 -4 19 -11 46 -15 60 -6 21 -7
19 -9 -15 -1 -35 -6 -26 -45 83 -42 120 -64 168 -49 107z"/>
<path d="M7381 6205 l-30 -26 19 -67 c22 -77 107 -327 120 -351 4 -9 31 -24
58 -34 57 -19 57 -20 67 -147 7 -96 24 -319 26 -345 3 -39 17 39 18 100 1 90
-25 318 -53 457 -34 165 -100 369 -132 407 -31 38 -53 39 -93 6z"/>
<path d="M1117 6163 c-8 -13 -46 -303 -57 -428 -14 -174 -13 -577 2 -612 11
-26 13 -21 20 62 4 50 7 99 7 110 0 221 19 447 55 640 2 11 9 59 16 107 12 81
12 89 -5 108 -19 21 -31 25 -38 13z"/>
<path d="M1222 5969 c-39 -130 -60 -379 -58 -674 1 -119 6 -207 12 -218 8 -14
13 36 17 190 6 204 25 440 51 638 17 132 7 162 -22 64z"/>
<path d="M9081 5420 c-4 -574 -131 -1217 -341 -1728 -23 -57 -38 -106 -34
-116 4 -9 19 -20 35 -23 16 -3 29 -9 29 -12 0 -4 -38 -83 -84 -177 -88 -176
-216 -378 -332 -524 -37 -47 -102 -128 -143 -180 -103 -130 -253 -303 -373
-433 -55 -59 -96 -107 -91 -107 17 0 284 262 392 385 307 350 547 733 671
1069 110 299 211 603 234 704 104 452 123 890 52 1222 l-14 65 -1 -145z"/>
<path d="M8357 5200 c-4 -113 -9 -223 -11 -245 -2 -22 -9 -101 -15 -175 -6
-74 -13 -151 -16 -170 -4 -28 -3 -31 5 -13 21 50 51 437 48 623 l-3 185 -8
-205z"/>
<path d="M2151 5296 c-15 -17 -18 -73 -5 -86 5 -5 21 -12 35 -15 54 -13 85 86
33 105 -35 14 -49 13 -63 -4z"/>
<path d="M1774 5173 c-22 -147 40 -592 122 -873 48 -168 179 -499 191 -486 8
8 -27 118 -67 206 -59 134 -108 271 -140 395 -56 215 -97 521 -96 700 1 58 0
105 -1 105 -1 0 -5 -21 -9 -47z"/>
<path d="M8185 5033 c-4 -31 -8 -114 -10 -185 -2 -126 -2 -129 21 -145 13 -8
29 -33 35 -54 7 -21 15 -37 18 -34 4 2 8 41 10 86 1 46 4 86 6 89 2 3 6 65 10
138 8 148 4 162 -50 162 -32 0 -33 -1 -40 -57z"/>
<path d="M1090 4938 c0 -46 31 -270 56 -406 46 -252 123 -522 221 -772 48
-121 208 -460 217 -460 4 0 -1 17 -10 38 -74 174 -213 538 -245 640 -21 69
-59 209 -85 309 -50 203 -51 200 15 232 l36 17 -2 79 c-2 93 -27 183 -73 259
-35 58 -50 70 -98 81 -29 6 -32 4 -32 -17z"/>
<path d="M1630 4913 c0 -41 40 -287 64 -392 33 -145 83 -312 97 -326 8 -7 10
-4 6 10 -4 11 -17 58 -31 105 -47 165 -98 417 -112 554 -4 36 -11 66 -15 66
-5 0 -9 -8 -9 -17z"/>
<path d="M1974 4548 c10 -62 58 -239 64 -234 6 6 -58 276 -65 276 -3 0 -3 -19
1 -42z"/>
<path d="M6860 4207 c-11 -18 -20 -48 -20 -68 0 -61 -31 -131 -92 -208 -53
-66 -111 -151 -132 -191 -14 -27 132 134 201 222 37 48 72 87 77 87 9 1 234
-147 279 -182 21 -17 22 -39 2 -77 -20 -38 -33 -41 -74 -13 -18 13 -41 23 -50
23 -9 0 -33 -22 -53 -48 -59 -80 -180 -212 -193 -212 -14 0 -85 75 -85 89 0
14 74 121 124 179 25 30 46 59 46 65 -1 15 -220 -212 -220 -228 0 -6 54 -62
119 -123 l119 -112 77 82 c118 125 285 357 285 394 0 19 -66 72 -133 105 -99
50 -199 111 -225 136 -38 38 -15 44 41 11 29 -17 115 -62 191 -101 136 -68
162 -75 173 -41 7 21 -228 158 -375 218 l-63 25 -19 -32z"/>
<path d="M9044 4078 c3 -13 6 -32 7 -43 1 -17 2 -16 9 5 12 39 11 47 -6 54
-13 5 -15 2 -10 -16z"/>
<path d="M8476 3467 c-40 -61 -113 -179 -161 -262 -111 -190 -177 -287 -312
-455 -131 -165 -427 -464 -583 -590 -63 -51 -116 -96 -118 -101 -4 -10 57 -49
78 -49 8 0 89 50 180 110 91 60 168 110 173 110 21 0 2 -32 -40 -66 -98 -79
-413 -347 -413 -351 0 -5 76 48 170 121 142 108 224 184 363 335 329 356 468
538 679 891 85 142 192 340 187 344 -2 2 -32 19 -67 39 l-63 37 -73 -113z"/>
<path d="M8716 3257 c-41 -44 -49 -59 -51 -95 -1 -24 1 -40 5 -35 10 10 103
183 98 182 -1 0 -25 -24 -52 -52z"/>
<path d="M6368 3225 c-16 -36 2 -71 42 -80 17 -4 33 -5 35 -3 11 11 -18 78
-40 92 -24 16 -26 16 -37 -9z"/>
<path d="M1655 2934 c-23 -30 -26 -40 -17 -59 14 -30 67 -58 93 -50 11 4 29
20 39 37 23 37 11 80 -26 97 -41 18 -60 13 -89 -25z"/>
<path d="M8464 2796 c-3 -8 -4 -29 -2 -48 2 -26 8 -34 27 -36 28 -4 51 20 51
54 0 26 -3 28 -43 38 -19 5 -29 2 -33 -8z"/>
<path d="M8329 2623 c-13 -16 -12 -17 4 -4 16 13 21 21 13 21 -2 0 -10 -8 -17
-17z"/>
<path d="M8276 2570 c-21 -16 -47 -32 -56 -35 -10 -3 -21 -20 -24 -38 -4 -17
-18 -49 -32 -70 -14 -22 -21 -37 -16 -33 10 6 175 206 170 206 -2 0 -21 -14
-42 -30z"/>
<path d="M2170 2495 c0 -25 274 -294 287 -281 4 4 -29 43 -73 87 -92 94 -214
204 -214 194z"/>
<path d="M2651 2308 c12 -17 49 -59 81 -93 65 -70 70 -92 33 -137 -30 -36 -23
-57 29 -82 52 -24 118 -21 144 7 90 96 -9 236 -223 316 -80 30 -92 28 -64 -11z"/>
<path d="M8162 2291 c-35 -36 -46 -80 -32 -132 17 -63 94 -88 160 -54 85 44
60 178 -38 205 -53 14 -57 13 -90 -19z"/>
<path d="M2390 2135 c13 -14 26 -25 28 -25 3 0 -5 11 -18 25 -13 14 -26 25
-28 25 -3 0 5 -11 18 -25z"/>
<path d="M2840 1872 c0 -12 68 -48 76 -40 3 4 -12 16 -35 28 -23 11 -41 17
-41 12z"/>
<path d="M3190 1840 c-25 -17 -64 -37 -87 -46 -24 -9 -43 -20 -43 -24 0 -4 18
-20 39 -35 35 -23 46 -26 83 -20 23 4 59 13 78 20 29 10 42 10 75 -2 47 -17
194 -23 195 -8 1 23 -237 145 -282 145 -7 0 -33 -14 -58 -30z"/>
<path d="M2850 1775 c0 -2 31 -23 103 -70 l28 -18 -17 29 c-11 20 -32 34 -65
45 -27 8 -49 15 -49 14z"/>
<path d="M6813 1604 c-124 -66 -154 -86 -85 -57 59 24 232 113 232 118 0 14
-36 -1 -147 -61z"/>
<path d="M3416 1645 c-11 -30 7 -44 117 -94 302 -135 576 -211 882 -242 126
-12 525 -6 620 10 44 7 36 9 -65 11 -63 1 -126 4 -140 5 -14 1 -65 6 -115 9
-309 23 -652 108 -975 241 -166 68 -310 95 -324 60z"/>
<path d="M3260 1592 c0 -15 55 -49 166 -105 285 -142 577 -230 907 -272 125
-16 417 -19 567 -6 98 9 109 8 -265 21 -262 8 -338 18 -555 71 -233 57 -539
168 -732 265 -69 35 -88 40 -88 26z"/>
<path d="M5370 1510 c-8 -15 -7 -35 5 -79 8 -32 15 -68 15 -80 0 -11 11 -28
24 -36 22 -15 32 -14 131 10 122 30 335 101 350 117 7 7 4 8 -10 5 -20 -6 -67
-11 -212 -22 -80 -7 -77 -9 -86 70 l-4 30 -101 3 c-93 2 -102 1 -112 -18z"/>
<path d="M3820 1290 c0 -10 49 -34 56 -27 2 2 -10 11 -26 21 -17 10 -30 13
-30 6z"/>
<path d="M4546 1124 c-8 -22 -8 -22 44 -29 39 -4 41 -4 15 5 -16 5 -35 17 -41
25 -10 14 -12 14 -18 -1z"/>
<path d="M4770 1080 c-62 -6 -120 -25 -120 -40 0 -4 15 -14 33 -21 42 -18 631
-19 692 -1 48 14 72 29 63 38 -17 16 -548 35 -668 24z"/>
</g>
</svg>
